<?xml version="1.0" encoding="utf-8"?><svg viewBox="0 0 131 131" xmlns="http://www.w3.org/2000/svg" xmlns:xlink="http://www.w3.org/1999/xlink"><style>:root>svg{display:none}:root>svg:target{display:block}</style><svg fill="none" viewBox="0 0 88 87" id="bootstrap" xmlns="http://www.w3.org/2000/svg"><g clip-path="url(#aa)"><path d="M0 75.782C0 81.978 5.08 87 11.347 87h65.306C82.92 87 88 81.977 88 75.782V11.218C88 5.022 82.92 0 76.653 0H11.347C5.08 0 0 5.023 0 11.218v64.564Z" fill="#563D7C"/><path d="M36.492 38.483v-12.32h10.97c1.044 0 2.051.086 3.021.258.97.172 1.829.48 2.575.922a4.944 4.944 0 0 1 1.791 1.845c.448.787.672 1.795.672 3.024 0 2.213-.672 3.812-2.015 4.796-1.343.983-3.06 1.475-5.15 1.475H36.493Zm-11.716-21.32v52.675h25.82c2.388 0 4.713-.295 6.977-.885 2.264-.59 4.278-1.5 6.044-2.73s3.172-2.816 4.217-4.758c1.045-1.943 1.567-4.243 1.567-6.899 0-3.295-.809-6.11-2.425-8.447-1.617-2.336-4.068-3.972-7.351-4.906 2.388-1.131 4.191-2.582 5.41-4.353 1.219-1.77 1.829-3.983 1.829-6.64 0-2.459-.41-4.524-1.232-6.197-.82-1.672-1.977-3.012-3.47-4.02-1.492-1.009-3.283-1.734-5.373-2.177-2.09-.443-4.403-.664-6.94-.664H24.776Zm11.716 43.674v-14.46h12.76c2.537 0 4.577.578 6.12 1.734 1.542 1.156 2.313 3.086 2.313 5.791 0 1.378-.236 2.509-.71 3.394-.472.885-1.106 1.586-1.902 2.103-.796.516-1.717.885-2.761 1.106a15.84 15.84 0 0 1-3.284.332H36.492Z" fill="#fff"/></g><defs><clipPath id="aa"><path fill="#fff" d="M0 0h88v87H0z"/></clipPath></defs></svg><svg fill="none" viewBox="0 0 120 119" id="css" xmlns="http://www.w3.org/2000/svg"><path d="M22.133 101.154 13.71 7.438h92.58l-8.434 93.701-37.912 10.423-37.812-10.408Z" fill="#1572B6"/><path d="m60 103.597 30.638-8.423 7.207-80.072H60v88.495Z" fill="#33A9DC"/><path d="M60 49.054h15.338l1.057-11.77H60V25.79h29.063l-.278 3.082-2.846 31.677H60V49.054Z" fill="#fff"/><path d="m60.071 78.904-.052.015-12.908-3.458-.825-9.167H34.65l1.624 18.047 23.741 6.538.056-.015v-11.96Z" fill="#EBEBEB"/><path d="m74.351 60.062-1.395 15.391-12.926 3.459v11.96l23.76-6.53.176-1.942 2.014-22.339H74.351Z" fill="#fff"/><path d="M60.041 25.79v11.494H32.044L31.81 34.7l-.529-5.828-.277-3.082h29.036ZM60 49.053v11.495H47.254l-.233-2.585-.525-5.827-.277-3.083H60Z" fill="#EBEBEB"/></svg><svg fill="none" viewBox="0 0 88 88" id="github" xmlns="http://www.w3.org/2000/svg"><path fill-rule="evenodd" clip-rule="evenodd" d="M44 0C19.69 0 0 19.69 0 44c0 19.47 12.595 35.915 30.085 41.745 2.2.385 3.025-.935 3.025-2.09 0-1.045-.055-4.51-.055-8.195C22 77.495 19.14 72.765 18.26 70.29c-.495-1.265-2.64-5.17-4.51-6.215-1.54-.825-3.74-2.86-.055-2.915 3.465-.055 5.94 3.19 6.765 4.51 3.96 6.655 10.285 4.785 12.815 3.63.385-2.86 1.54-4.785 2.805-5.885-9.79-1.1-20.02-4.895-20.02-21.725 0-4.785 1.705-8.745 4.51-11.825-.44-1.1-1.98-5.61.44-11.66 0 0 3.685-1.155 12.1 4.51 3.52-.99 7.26-1.485 11-1.485s7.48.495 11 1.485c8.415-5.72 12.1-4.51 12.1-4.51 2.42 6.05.88 10.56.44 11.66 2.805 3.08 4.51 6.985 4.51 11.825 0 16.885-10.285 20.625-20.075 21.725 1.595 1.375 2.97 4.015 2.97 8.14 0 5.885-.055 10.615-.055 12.1 0 1.155.825 2.53 3.025 2.09A44.073 44.073 0 0 0 88 44C88 19.69 68.31 0 44 0Z" fill="#000"/></svg><svg fill="none" viewBox="0 0 105 105" id="gitlab" xmlns="http://www.w3.org/2000/svg"><g clip-path="url(#da)"><path d="M103.02 47.822 57.176 1.98a6.762 6.762 0 0 0-9.563 0l-9.52 9.52L50.17 23.576a8.027 8.027 0 0 1 8.261 1.925 8.04 8.04 0 0 1 1.908 8.312l11.639 11.639c2.815-.97 6.064-.343 8.313 1.91a8.043 8.043 0 0 1 0 11.378 8.046 8.046 0 0 1-13.133-8.751L56.305 39.135l-.002 28.562a8.13 8.13 0 0 1 2.128 1.522 8.047 8.047 0 0 1 0 11.38c-3.144 3.143-8.238 3.143-11.377 0a8.046 8.046 0 0 1 2.633-13.136V38.635a7.948 7.948 0 0 1-2.633-1.756c-2.382-2.378-2.954-5.872-1.734-8.796L33.415 16.178 1.981 47.61a6.764 6.764 0 0 0 0 9.566l45.845 45.842a6.764 6.764 0 0 0 9.563 0l45.63-45.63a6.766 6.766 0 0 0 0-9.566" fill="#DE4C36"/></g><defs><clipPath id="da"><path fill="#fff" d="M0 0h105v105H0z"/></clipPath></defs></svg><svg fill="none" viewBox="0 0 120 120" id="greenshok" xmlns="http://www.w3.org/2000/svg"><path d="M67.365 119.745c-1.564-.274-3.184-1.016-4.102-1.837a3.617 3.617 0 0 1-.998-2.423c0-.919.469-2.209 1.211-3.495a9.86 9.86 0 0 0 1.054-2.325c.157-.566.487-1.485.742-2.07l.45-1.072.117-7.167c.06-3.963.176-7.635.273-8.205a25.567 25.567 0 0 1 1.25-4.803l.43-1.035-.626-.372c-.566-.352-1.035-.84-2.891-3.049-2.284-2.696-5.291-4.18-9.551-4.687a74.048 74.048 0 0 0-4.2-.293c-6.252-.292-9.825-1.6-13.047-4.766-2.403-2.362-3.652-5.118-4.158-9.18-.683-5.49-1.444-8.302-2.85-10.586a10.474 10.474 0 0 0-1.193-1.583l-.566-.566-1.249.803a35.403 35.403 0 0 1-2.111 1.271 42.076 42.076 0 0 0-4.474 2.85c-3.495 2.539-7.305 5.722-9.394 7.811-.937.938-1.425 1.346-1.642 1.309-1.425-.214-.334-6.386 1.991-11.036 2.97-5.996 7.969-11.524 13.752-15.255 4.747-3.068 12.423-7.287 15.974-8.772 6.308-2.636 14.472-5.49 20.06-7.012 1.173-.334 1.893-.626 2.38-.956 1.096-.761 2.168-1.133 3.398-1.151 1.035-.02 1.133-.038 2.13-.706 1.174-.76 1.522-.802 2.696-.39l.761.274.938-.645.938-.626 1.346.019c1.035.019 1.504-.019 1.954-.214.566-.255.585-.293.742-1.23.352-2.032.39-3.049.176-4.279-.273-1.62-.311-7.908-.037-9.142.292-1.328.487-1.601 1.485-2.089C82.009.341 83.123.128 85.68.128c3.124 0 4.706.43 5.88 1.563 1.054 1.016 1.23 3.398.683 8.985-.334 3.222-.372 4.121-.274 6.229.037 1.346.135 2.617.176 2.794.079.333.157.352 1.29.371 1.114.019 1.309.079 2.362.626 1.017.529 1.778 1.174 1.936 1.643.018.097.194.097.506 0 .603-.176 1.132.019 1.563.547.256.334.409.39.998.39.803 0 1.095.195 1.759 1.174.31.44.736.784 1.23.998 1.095.547 2.58 2.07 3.146 3.28a8.075 8.075 0 0 1 .506 5.76c-.195.706-.195.724.214 1.407.859 1.466 1.174 3.262.821 4.785l-.195.9.585.585c2.91 2.91 2.479 7.657-1.072 11.895a7.555 7.555 0 0 0-.998 1.582c-.682 1.816-1.466 3.087-2.478 4.14l-1.035 1.054h-1.054c-1.054 0-2.539-.352-3.439-.821-.371-.195-.39-.195-.311.038.236.858.821 4.353 1.016 6.288.311 2.97.214 7.287-.195 9.143a14.266 14.266 0 0 1-1.485 3.926c-.39.626-.409.761-.334 1.523.117 1.072-.135 2.872-.566 4.06-.529 1.388-.724 2.033-.84 2.735-.097.603-.097.603.334.603.566 0 .877.334.877.998 0 .292-.255 1.875-.566 3.495-.859 4.552-.919 5.058-.919 9.472-.019 4.553-.019 4.512 1.016 5.194l2.326 1.504c2 1.327 4.142 2.428 6.386 3.281 3.262 1.29 3.712 1.62 3.712 2.715 0 .488-.097.664-.506 1.054-1.249 1.211-3.712 1.485-8.674.956a85.075 85.075 0 0 0-7.755-.371c-6.836-.098-7.834-.334-8.73-2.033-.506-.975-.408-2.246.293-4.335.311-.918.585-1.856.821-2.812.469-2.265.157-4.961-.938-8.007l-.937-2.598c-.919-2.636-1.425-7.463-.877-8.554.097-.214.273-.255.742-.236l.585.06.487-1.017c.372-.802.78-1.327 1.894-2.44l1.425-1.426-.078-.918c-.06-.878-1.212-5.138-1.37-5.12-.06 0-.37.432-.723.976-.859 1.29-2.753 3.281-3.829 4.005-.468.311-.858.682-.858.802-.02.529-.47 1.564-1.017 2.284-.528.705-.566.821-.487 1.444.135.919-.158 3.866-.507 5.411a17.515 17.515 0 0 1-1.29 3.319c-1.346 2.794-2.362 5.291-2.617 6.446a28.348 28.348 0 0 0-.353 3.36c-.06 1.328-.194 2.618-.292 2.891-.135.372-.135.664-.019 1.23.098.409.158 1.328.135 2.052-.019.997.06 1.642.353 2.812.506 1.991.603 3.244.371 3.986-.157.469-.311.645-.84.9-1.174.604-4.493.938-6.289.627l.004.007Zm4.744-1.601c.682-.195 1.271-.78 1.271-1.309 0-.236-.195-.919-.431-1.522-.469-1.152-1.272-4.2-1.272-4.707 0-.255.02-.273.41-.06l.43.237v-.548a7.805 7.805 0 0 0-.333-1.485c-.371-1.114-.409-1.132-2.775-1.271l-1.602-.079-.585.566a5.94 5.94 0 0 0-.84 1.095c-.255.507-.352 1.272-.195 1.444.038.06.432 0 .86-.097.253-.076.515-.121.78-.135 0 .018-.432.371-.976.742-2.344 1.759-3.165 2.831-3.165 4.2 0 1.425 1.346 2.539 3.458 2.873 1.444.213 4.256.273 4.961.06l.004-.004Zm31.777-2.325c.585-.705.507-1.425-.236-2.246a6.18 6.18 0 0 0-1.466-1.095 25.73 25.73 0 0 1-1.643-.975 41.348 41.348 0 0 0-3.048-1.797c-.9-.487-1.778-.997-2.637-1.541l-.352-.274v-5.37c0-5.291-.019-5.37-.293-5.291-1.368.371-3.633.547-6.502.487l-3.105-.037.45 1.095c.84 2.07 1.271 4.845 1.271 8.029 0 1.192-.079 1.62-.371 2.46-.158.409-.293.821-.431 1.23-.06.176.157.311.956.547.585.177 1.444.353 1.935.409l.9.098-.098.9c-.097 1.016.019 2.088.274 2.422.157.195.743.274 3.458.39 2.05.098 4.278.311 6.033.566 1.523.237 3.165.432 3.653.432.821.018.9-.019 1.248-.432l.004-.007Zm-31.267-9.139c.079-.06.195-1.114.236-2.362.157-3.495.292-4.005 2.051-7.95 1.444-3.222 2.209-6.23 2.149-8.36l-.038-1.27-.547.528c-1.132 1.133-.352-.645.998-2.227 1.016-1.212 1.368-1.875 1.522-2.948.079-.431.236-.645.9-1.151a16.804 16.804 0 0 0 5.528-7.305c.273-.705.974-3.105 1.563-5.333 1.095-4.12 1.68-5.898 2.209-6.66.195-.292.274-.352.236-.157a27.77 27.77 0 0 0-.663 3.184c-.158.956-.45 2.831-.645 4.14-.372 2.677-.762 4.395-1.29 5.722l-.353.9.938 2.423c.975 2.478 1.425 4.278 1.503 6.015l.06.975-.761.157a3.941 3.941 0 0 0-2.501 1.564c-.664.956-1.035 1.74-.859 1.913.079.078 1.035.255 2.13.39 1.699.195 2.344.195 4.59.06a27.445 27.445 0 0 0 2.891-.274c.214-.079.431-.507.78-1.62.803-2.558.957-3.458.859-5.254l-.079-1.582.409-.53c.956-1.21 1.699-3.397 2.01-5.958.371-3.124-.311-9.667-1.582-15.292-.604-2.678-.86-4.28-.86-5.45v-1.034l-.956.097c-3.438.372-7.597.274-10.136-.255-1.387-.274-4.882-1.309-5.644-1.642l-.603-.274-.079.682c-.06.372-.116.743-.195 1.133-.116.409-.079.506.645 1.211.9.919 1.174 1.388 1.174 2.01 0 .39-.214.705-1.309 1.838a16.38 16.38 0 0 1-2.599 2.246l-1.271.859-.547 1.894c-1.954 6.933-2.326 13.24-1.035 17.752l.31 1.133-.626.78c-2.343 2.947-3.73 5.193-3.945 6.446-.124.617-.268 1.23-.43 1.837-.507 1.935-.9 4.767-1.073 7.834-.12 2.568-.29 5.133-.507 7.695l-.097.761.975.293c.547.176 1.369.371 1.837.45.878.135 2.502.097 2.753-.038l-.026.004Zm18.963-10.744c1.523-.097 2.91-.334 3.184-.566.116-.079.255-.488.293-.9l.097-.742-1.211.273c-.956.195-1.912.311-2.872.39a48.343 48.343 0 0 1-6.915-.195c-.762-.116-.762-.116-.53.878.196.742.237.78 2.228.919 1.328.116 3.184.097 5.723-.06l.004.003Zm-1.27-3.397c1.99-.177 4.473-.604 4.96-.859.158-.079.293-.371.353-.705l.176-1.035.098-.487-.488.097c-2.167.45-3.81.585-7.091.585-3.202 0-3.574-.019-4.414-.311a3.074 3.074 0 0 0-1.016-.236c-.135.078-.157 1.192-.037 1.972.078.469.157.547.626.683 1.485.408 3.986.506 6.836.273l-.004.023ZM54.063 74.92c4.998-1.444 11.542-5.685 16.893-10.995 1.74-1.74 1.954-1.972 2.187-2.752l.311-.998c.038-.079-.274-.214-.683-.311-1.072-.255-1.893-.878-1.893-1.444 0-.334-.195-.663-.761-1.271-.92-1.035-1.152-1.485-1.25-2.479l-.078-.802-1.095-.78c-.626-.45-2.813-1.661-5.137-2.831a69.628 69.628 0 0 1-5.194-2.813c-1.954-1.309-3.263-2.873-4.005-4.725-.135-.371-.312-.682-.372-.682-.157 0-4.552 4.237-6.427 6.228-4.628 4.883-7.811 9.12-9.825 13.047-.506.974-1.054 2.13-1.211 2.557l-.293.78.353 1.309c.213.705.663 1.856 1.016 2.538 1.23 2.423 2.696 3.885 5.119 5.078 2.599 1.29 4.901 1.74 8.748 1.68 2.07-.019 2.678-.079 3.593-.352l.004.018ZM14.61 57.791c3.281-2.91 7.811-6.093 13.361-9.393 3.634-2.168 17.678-9.2 24.143-12.072a190.653 190.653 0 0 0 2.344-1.072c.116-.079.45-.919.76-1.856 1.37-4.336 2.052-5.194 4.53-5.76.312-.08.39-.177.39-.488 0-.566.39-1.875.724-2.46.255-.45.255-.469.038-.409-.135.038-.956.274-1.815.529-11.914 3.439-22.324 8.006-31.309 13.71-9.588 6.094-15.116 13.399-16.717 22.147l-.116.645 1.173-1.15a49.293 49.293 0 0 1 2.502-2.344l-.008-.027Zm88.38 1.662c.956-.488 2.441-2.734 2.989-4.512a3.901 3.901 0 0 1 .919-1.699c1.443-1.6 2.636-4.51 2.655-6.502 0-3.105-1.759-4.297-4.317-2.97-.333.157-.603.274-.645.236-.135-.135.585-.84 1.467-1.387 1.151-.761 1.368-1.212 1.368-2.831a6.34 6.34 0 0 0-1.113-3.672c-.353-.529-.488-.877-.432-1.095l.353-1.309c.487-1.74.311-3.73-.45-4.998-1.133-1.913-2.52-2.85-4.455-3.008l-1.133-.078.664.742c1.973 2.13 2.929 4.804 2.539 7.091-.195 1.174-.371 1.407-1.504 1.857l-.664.273.079.9c.135 1.467-.116 2.539-1.054 4.511-.469.998-.821 1.894-.78 1.992.117.334 1.407.956 2.423 1.211l.997.236-.626.214c-.821.255-.997.626-.997 1.972 0 1.23.176 1.74 1.072 3.087.409.585.683 1.192.724 1.541.079.547.06.585-.39.742a7.09 7.09 0 0 1-1.564.255c-1.837.117-1.972.177-2.794.957-.742.705-.761.742-.761 1.522 0 1.073.409 3.244.664 3.536.334.353 2.186 1.272 2.91 1.407.624.157 1.284.08 1.856-.214v-.008ZM75.938 57.99c1.192-.938 2.13-1.875 2.654-2.678.334-.487.353-.584.195-.997-.273-.626-2.07-2.246-3.067-2.734a7.797 7.797 0 0 0-2.089-.604l-1.23-.157-.761-.956c-1.582-1.954-2.46-3.476-3.713-6.428-1.095-2.501-2.05-3.964-3.573-5.411-.627-.585-1.073-1.072-1.035-1.072.078 0 .821.37 1.68.82 1.425.762 1.601.822 2.246.724 2.325-.273 4.376-2.947 5.119-6.697.213-1.054.645-2.13 1.095-2.775.019-.019.918.566 1.972 1.328 2.678 1.893 3.263 2.186 4.785 2.246.998.037 1.564-.038 3.36-.469 3.829-.938 7.969-1.309 10.489-.975 1.425.195 3.476.821 4.999 1.541 1.504.705 1.796.743 2.284.312.408-.353.408-.41.408-1.718-.018-1.935-.723-4.024-1.796-5.273-.547-.645-2.089-1.698-3.615-2.5-.543-.288-1.083-.581-1.62-.878-.724-.431-1.541-.372-3.769.213-2.58.664-3.262.664-6.21-.097-2.501-.626-2.655-.645-5.118-.255-1.31.195-4.59.079-5.686-.214-.547-.157-1.094-.311-1.62-.506-.956-.371-2.617-.431-4.12-.158-2.99.53-5.255 2.15-6.076 4.354-.431 1.114-.371 1.643.195 1.992.9.566 2.089 2.11 2.089 2.715 0 .037-.292-.214-.626-.567-.84-.877-1.602-1.271-2.502-1.271a3.128 3.128 0 0 0-2.752 1.815c-.263.69-.484 1.395-.664 2.111-.547 1.992-1.035 3.049-2.07 4.455-.919 1.272-1.053 1.838-.724 3.263.822 3.592 2.247 5.04 8.202 8.419 3.123 1.777 4.725 2.774 5.898 3.652.9.664.92.705.84 1.211-.176 1.174.567 2.441 2.033 3.477.371.255.604.528.604.723 0 .353.997.84 1.717.84.409 0 .724-.176 1.564-.821h.007Zm24.082-6.585c2.265.079 2.381-.098 1.174-1.504-1.272-1.466-1.62-2.655-1.151-3.964l.195-.506-.803-.39c-.274-.135-.547-.273-.821-.371-.135.529-.274 1.035-.39 1.564-.293 1.192-.645 4.279-.664 5.587 0 .117.195.079.529-.135.469-.273.705-.311 1.935-.273l-.004-.008Zm-7.597-.116c1.368-.079 2.775-.177 3.146-.236l.682-.098.079-2.246c.116-3.203.585-5.097 1.972-8.127.975-2.148 1.407-4.023 1.193-5.43-.079-.603-.116-.645-.938-.997a21.62 21.62 0 0 0-4.668-1.271c-1.541-.214-6.075-.098-7.774.236-.705.116-1.991.39-2.85.604-2.13.487-3.263.431-4.883-.274-1.6-.705-2.617-1.346-3.573-2.246-.761-.705-.84-.743-1.035-.506-.158.176-.237.704-.293 1.837-.06 1.74-.334 2.655-1.095 3.885-.169.253-.313.522-.431.802 0 .06.585.743 1.309 1.486 2.501 2.598 3.731 3.262 5.704 3.123.644-.06 1.094-.037 1.094.038 0 .157-1.27 1.151-1.796 1.425-.255.135-.311.274-.273.566l.31 2.051c.177 1.174.312 1.718.488 1.875.469.39 2.892 1.643 4.414 2.265 1.991.803 3.086 1.095 4.609 1.23 1.875.158 1.912.158 4.609 0v.008ZM76.27 49.14c.038-.06-.097-1.193-.352-2.501-.311-1.778-.488-2.423-.683-2.599-.135-.116-.859-.626-1.582-1.151a24.667 24.667 0 0 1-2.697-2.247l-1.346-1.327-.724.371-.76.409c.063.305.168.6.31.877.214.47.645 1.62.957 2.558.821 2.441 1.466 3.615 3.086 5.741l.604.803 1.151.176c.645.097 1.29.236 1.466.292.274.117.312.06.39-.566.038-.273.098-.566.177-.84l.003.004Zm24.747-24.296c.997-.098 1.173-.236.742-.683-.274-.274-.9-.292-1.406-.06-.334.158-.409.117-.938-.45-.547-.604-.585-.626-1.271-.547-.626.079-.724.06-.802-.195a5.03 5.03 0 0 0-.9-1.133 4.334 4.334 0 0 0-1.62-1.151c-1.212-.469-1.894-.409-3.05.236-3.34 1.815-3.202 1.796-6.427.975-3.007-.761-5.254-1.541-5.977-2.032-.604-.409-1.894-.859-2.97-.998-.803-.116-1.309.06-2.07.683l-.409.334.371.645c.507.9.45.956-.311.292-.821-.683-1.796-1.151-2.422-1.174-.45 0-1.778.585-1.936.84-.06.079.353.177.9.214.567.06 1.347.255 1.875.469 1.37.585 2.07.78 3.32.9 1.368.135 3.847-.019 4.14-.255.157-.135.584-.158 1.484-.079 1.193.079 1.68.195 4.512.956 1.642.45 2.793.409 4.747-.116.9-.255 2.032-.506 2.501-.566.803-.079.957-.038 2.209.528 1.991.9 3.049 1.467 3.634 1.992.585.506.663.506 2.07.39l.004-.015Zm-11.134-3.417 1.192-.626-.037-1.211c-.019-.84-.06-1.661-.098-2.479l-.097-1.248-1.193.918c-.705.548-1.387.957-1.68 1.017-.859.157-5.096 0-5.49-.214a11.464 11.464 0 0 1-1.466-1.29L79.92 15.18l-.019.664c0 .352-.037.956-.116 1.327-.097.705-.097.724.664 1.68.409.529.742.998.742 1.054 0 .371 5.644 2.13 6.915 2.149.409 0 .919-.176 1.778-.627Zm-2.265-4.436c1.406-.273 2.088-1.29 2.617-3.866.548-2.775.822-7.129.566-8.985-.236-1.68-2.11-2.422-5.684-2.306-2.228.079-3.147.292-3.908.937-.469.39-.469.432-.682 2.284-.39 3.555.194 8.614 1.21 10.508.488.918.92 1.248 1.816 1.406 1.016.176 3.183.176 4.061.018l.004.004Z" fill="#000"/></svg><svg fill="none" viewBox="0 0 120 120" id="html" xmlns="http://www.w3.org/2000/svg"><path d="M22.133 102.004 13.706 7.5h92.588l-8.438 94.489L59.944 112.5l-37.812-10.496Z" fill="#E44F26"/><path d="m60 104.468 30.638-8.494 7.207-80.745H60v89.239Z" fill="#F1662A"/><path d="M60 50.276H44.663l-1.058-11.869H60v-11.59H30.937l.278 3.112 2.846 31.939H60V50.276Zm0 30.101-.053.016-12.907-3.484-.825-9.244H34.579l1.623 18.195 23.745 6.593.053-.016v-12.06Z" fill="#EBEBEB"/><path d="M59.959 50.276v11.591H74.23L72.89 76.901l-12.93 3.488v12.06l23.763-6.589.173-1.957 2.723-30.514.285-3.113H59.959Zm0-23.46v11.591h27.997l.233-2.602.529-5.876.277-3.113H59.959Z" fill="#fff"/></svg><svg fill="none" viewBox="0 0 120 120" id="js" xmlns="http://www.w3.org/2000/svg"><path d="M7.5 7.5h105v105H7.5V7.5Z" fill="#F5DE19"/><path d="M78.034 89.531a10.748 10.748 0 0 0 9.75 6c4.087 0 6.701-2.044 6.701-4.875 0-3.375-2.685-4.582-7.185-6.551l-2.468-1.058c-7.124-3.033-11.85-6.832-11.85-14.864 0-7.4 5.626-13.036 14.45-13.036a14.584 14.584 0 0 1 14.032 7.902L93.75 67.98a6.709 6.709 0 0 0-6.334-4.23 4.295 4.295 0 0 0-4.721 4.23c0 2.959 1.834 4.159 6.068 6l2.467 1.057c8.385 3.597 13.125 7.26 13.125 15.5 0 8.883-6.979 13.75-16.35 13.75a18.958 18.958 0 0 1-17.981-10.09l8.01-4.666Zm-34.857.855c1.55 2.749 2.96 5.074 6.35 5.074 3.24 0 5.287-1.267 5.287-6.199V55.71h9.866v33.682c0 10.216-6 14.865-14.734 14.865a15.319 15.319 0 0 1-14.801-9l8.032-4.87Z" fill="#000"/></svg><svg fill="none" viewBox="0 0 20 20" id="live-code" xmlns="http://www.w3.org/2000/svg"><path d="M11.287 8.713a3.64 3.64 0 0 0-5.147 0l-2.574 2.574a3.64 3.64 0 0 0 5.147 5.147L10 15.147" stroke="#000" stroke-width="1.667" stroke-linecap="round" stroke-linejoin="round"/><path d="M8.713 11.287a3.64 3.64 0 0 0 5.147 0l2.574-2.574a3.64 3.64 0 0 0-5.147-5.147L10 4.853" stroke="#000" stroke-width="1.667" stroke-linecap="round" stroke-linejoin="round"/></svg><svg fill="none" viewBox="0 0 113 101" id="react" xmlns="http://www.w3.org/2000/svg"><g clip-path="url(#ia)"><path d="M92.906 32.703a75.558 75.558 0 0 0-3.637-1.15c.205-.842.394-1.674.561-2.49 2.754-13.415.954-24.221-5.194-27.78-5.894-3.41-15.534.147-25.27 8.65-.96.84-1.898 1.704-2.814 2.591a68.951 68.951 0 0 0-1.872-1.735C44.477 1.696 34.25-2.136 28.108 1.432c-5.89 3.422-7.633 13.58-5.154 26.293.246 1.26.525 2.512.835 3.757a74.694 74.694 0 0 0-4.182 1.32C7.644 36.988.005 43.548.005 50.352c0 7.029 8.201 14.078 20.661 18.352 1.01.346 2.029.665 3.055.96a74.442 74.442 0 0 0-.887 4.047c-2.363 12.493-.518 22.411 5.355 25.811 6.066 3.511 16.248-.097 26.162-8.795a64.354 64.354 0 0 0 2.357-2.181 74.38 74.38 0 0 0 3.055 2.797c9.603 8.293 19.087 11.642 24.955 8.233 6.06-3.521 8.03-14.176 5.473-27.14a64.56 64.56 0 0 0-.678-3.031 68.311 68.311 0 0 0 2.101-.66c12.953-4.306 21.381-11.27 21.381-18.392 0-6.83-7.886-13.434-20.09-17.65Zm-2.81 31.444c-.618.206-1.252.403-1.898.596-1.43-4.543-3.36-9.375-5.721-14.367 2.254-4.872 4.109-9.642 5.499-14.156a70.93 70.93 0 0 1 3.359 1.063c10.456 3.613 16.834 8.954 16.834 13.07 0 4.384-6.888 10.075-18.073 13.794Zm-4.64 9.23c1.13 5.732 1.292 10.915.543 14.967-.673 3.64-2.026 6.068-3.7 7.04-3.56 2.069-11.175-.62-19.388-7.713a69.371 69.371 0 0 1-2.841-2.6c3.184-3.495 6.366-7.558 9.471-12.07 5.463-.487 10.623-1.282 15.303-2.368.225.91.43 1.824.612 2.743Zm-46.93 21.65c-3.48 1.232-6.25 1.268-7.925.298-3.564-2.063-5.046-10.027-3.025-20.71a69.69 69.69 0 0 1 .825-3.765c4.628 1.028 9.751 1.767 15.226 2.212 3.127 4.416 6.4 8.474 9.7 12.027a59.529 59.529 0 0 1-2.152 1.99c-4.385 3.846-8.778 6.575-12.65 7.947ZM22.228 64.12c-5.51-1.89-10.06-4.346-13.179-7.027-2.802-2.408-4.217-4.8-4.217-6.74 0-4.13 6.134-9.397 16.364-12.976a69.701 69.701 0 0 1 3.89-1.229c1.414 4.616 3.268 9.442 5.507 14.323-2.268 4.952-4.149 9.856-5.577 14.526a59.336 59.336 0 0 1-2.788-.877Zm5.463-37.325c-2.123-10.892-.713-19.108 2.836-21.17 3.78-2.196 12.138.935 20.948 8.787.575.513 1.14 1.036 1.696 1.57-3.283 3.538-6.527 7.566-9.626 11.955-5.314.494-10.4 1.288-15.077 2.352a71.098 71.098 0 0 1-.777-3.494Zm48.74 12.079a154.372 154.372 0 0 0-3.437-5.672c3.605.458 7.06 1.065 10.303 1.808-.974 3.133-2.188 6.407-3.616 9.765a169.041 169.041 0 0 0-3.25-5.901Zm-19.877-19.43c2.227 2.421 4.456 5.124 6.65 8.056-4.45-.21-8.906-.211-13.355-.002a106.825 106.825 0 0 1 6.705-8.054ZM36.551 38.907a143.272 143.272 0 0 0-3.19 5.864 107.232 107.232 0 0 1-3.59-9.813 108.669 108.669 0 0 1 10.244-1.764 142.55 142.55 0 0 0-3.464 5.713Zm3.567 28.95c-3.701-.415-7.19-.976-10.414-1.68a108.725 108.725 0 0 1 3.663-10.012 142.385 142.385 0 0 0 6.75 11.692Zm16.57 13.746a108.547 108.547 0 0 1-6.799-8.166c2.164.085 4.37.129 6.611.129 2.303 0 4.58-.052 6.82-.152-2.2 3-4.421 5.745-6.632 8.189ZM79.726 55.99c1.51 3.455 2.784 6.797 3.794 9.976-3.276.75-6.813 1.354-10.54 1.803 1.195-1.9 2.351-3.824 3.47-5.77a154.062 154.062 0 0 0 3.276-6.01Zm-7.458 3.588a159 159 0 0 1-5.42 8.778c-3.444.245-6.896.367-10.348.365-3.516 0-6.937-.11-10.23-.325a137.492 137.492 0 0 1-5.523-8.791 136.374 136.374 0 0 1-4.82-9.137 137.623 137.623 0 0 1 4.806-9.142 136.198 136.198 0 0 1 5.478-8.754 136.13 136.13 0 0 1 10.289-.388c3.498 0 6.949.135 10.308.392a146.006 146.006 0 0 1 5.444 8.724 159.006 159.006 0 0 1 4.871 9.099 146.108 146.108 0 0 1-4.855 9.18Zm9.957-54.098c3.784 2.19 5.255 11.021 2.878 22.603a64.934 64.934 0 0 1-.508 2.255c-4.688-1.086-9.778-1.894-15.108-2.396-3.104-4.437-6.321-8.471-9.55-11.964a70.966 70.966 0 0 1 2.598-2.392c8.342-7.286 16.138-10.162 19.69-8.106ZM56.5 40.226c5.572 0 10.09 4.534 10.09 10.127 0 5.593-4.518 10.127-10.09 10.127s-10.09-4.534-10.09-10.127c0-5.593 4.518-10.127 10.09-10.127Z" fill="#00D8FF"/></g><defs><clipPath id="ia"><path fill="#fff" d="M0 0h113v101H0z"/></clipPath></defs></svg><svg fill="none" viewBox="0 0 117 87" id="sass" xmlns="http://www.w3.org/2000/svg"><g clip-path="url(#ja)"><path d="M100.673 50.077c-4.07.02-7.608.992-10.57 2.43-1.087-2.135-2.173-4.036-2.365-5.431-.213-1.627-.469-2.62-.213-4.564.255-1.944 1.406-4.712 1.385-4.923-.021-.211-.256-1.204-2.6-1.225-2.344-.022-4.369.443-4.603 1.056-.234.613-.682 2.007-.98 3.444-.405 2.113-4.688 9.656-7.139 13.607-.789-1.542-1.47-2.894-1.62-3.972-.213-1.627-.469-2.62-.213-4.564s1.407-4.712 1.385-4.923c-.021-.211-.256-1.205-2.6-1.225-2.344-.022-4.369.443-4.603 1.056-.234.613-.49 2.05-.98 3.444-.49 1.395-6.18 13.988-7.672 17.242a96.97 96.97 0 0 1-1.896 3.909s-.022.063-.086.169c-.208.404-.42.805-.639 1.204v.02c-.32.572-.66 1.1-.831 1.1-.128 0-.362-1.522.043-3.592.852-4.374 2.876-11.178 2.855-11.41 0-.127.384-1.31-1.32-1.923-1.663-.613-2.26.401-2.41.401-.148 0-.255.36-.255.36s1.854-7.649-3.537-7.649c-3.367 0-8.013 3.655-10.315 6.951-2.616 1.412-5.23 2.828-7.842 4.248-1.257.697-2.557 1.394-3.772 2.05-.085-.085-.17-.191-.256-.275-6.52-6.91-18.582-11.79-18.07-21.066.191-3.381 1.363-12.256 23.164-23.031 17.943-8.77 32.221-6.34 34.693-.951 3.537 7.69-7.65 21.974-26.19 24.045-7.076.782-10.784-1.923-11.721-2.937-.98-1.057-1.13-1.12-1.492-.909-.597.318-.213 1.268 0 1.817.554 1.437 2.834 3.973 6.691 5.22 3.41 1.098 11.7 1.711 21.737-2.135 11.23-4.31 20.01-16.29 17.432-26.327C70.69.634 53.641-2.726 37.51 2.958 27.92 6.339 17.52 11.663 10.04 18.594 1.154 26.834-.253 33.997.322 36.998 2.39 47.647 17.201 54.578 23.125 59.71c-.299.17-.576.318-.81.445-2.962 1.457-14.257 7.31-17.07 13.5-3.196 7.016.512 12.045 2.963 12.72 7.607 2.093 15.428-1.668 19.626-7.88 4.198-6.213 3.687-14.284 1.748-17.982-.022-.042-.043-.084-.086-.127.768-.443 1.556-.908 2.323-1.352 1.41-.826 2.839-1.622 4.284-2.388-.725 1.966-1.258 4.311-1.513 7.692-.32 3.972 1.32 9.127 3.473 11.156.96.888 2.089.909 2.813.909 2.515 0 3.645-2.071 4.902-4.522 1.534-3 2.92-6.487 2.92-6.487S46.97 74.82 51.66 74.82c1.704 0 3.43-2.198 4.198-3.317v.02s.042-.063.128-.21c.17-.275.277-.445.277-.445v-.041c.681-1.184 2.216-3.867 4.496-8.326 2.94-5.747 5.775-12.93 5.775-12.93s.256 1.753 1.13 4.669c.511 1.712 1.576 3.592 2.429 5.409a35.727 35.727 0 0 1-1.108 1.479l.021.021c-.554.718-1.15 1.5-1.811 2.261-2.323 2.747-5.093 5.896-5.477 6.804-.448 1.077-.341 1.86.512 2.493.617.465 1.725.528 2.855.465 2.089-.148 3.559-.655 4.283-.972 1.13-.401 2.451-1.014 3.687-1.923 2.28-1.67 3.665-4.057 3.537-7.205-.064-1.732-.639-3.465-1.342-5.092.213-.296.405-.592.618-.887 3.601-5.22 6.393-10.946 6.393-10.946s.256 1.754 1.13 4.67c.426 1.48 1.3 3.085 2.067 4.648-3.389 2.726-5.477 5.895-6.223 7.966-1.342 3.846-.299 5.578 1.684 5.98.894.19 2.173-.233 3.11-.634 1.194-.38 2.6-1.035 3.944-2.008 2.28-1.668 4.475-3.993 4.347-7.14-.064-1.438-.448-2.854-.98-4.227 2.876-1.183 6.584-1.838 11.315-1.289 10.144 1.183 12.147 7.459 11.763 10.1-.383 2.641-2.514 4.078-3.217 4.522-.704.444-.938.591-.874.908.085.465.426.444 1.023.36.831-.148 5.328-2.135 5.519-6.994.32-6.212-5.647-12.995-16.196-12.931ZM22.422 76.235c-3.368 3.634-8.056 5.007-10.08 3.845-2.174-1.247-1.322-6.614 2.813-10.459 2.514-2.345 5.753-4.522 7.906-5.853.49-.296 1.215-.718 2.088-1.246.15-.085.235-.127.235-.127l.511-.317c1.513 5.493.064 10.332-3.473 14.157ZM46.929 59.71c-1.173 2.832-3.623 10.08-5.115 9.678-1.279-.338-2.067-5.832-.256-11.262.917-2.726 2.856-5.98 3.985-7.247 1.833-2.03 3.858-2.706 4.347-1.88.619 1.077-2.237 8.937-2.961 10.711Zm20.223 9.593c-.49.254-.959.423-1.172.296-.15-.085.213-.423.213-.423s2.536-2.704 3.538-3.93c.575-.718 1.257-1.563 1.982-2.514v.275c0 3.232-3.155 5.409-4.561 6.296Zm15.6-3.528c-.363-.254-.3-1.1.916-3.74.468-1.036 1.576-2.768 3.473-4.438.213.677.363 1.332.341 1.944-.021 4.078-2.962 5.6-4.73 6.234Z" fill="#CD6799"/></g><defs><clipPath id="ja"><path fill="#fff" d="M0 0h117v87H0z"/></clipPath></defs></svg><svg fill="none" viewBox="0 0 131 131" id="tallwind" xmlns="http://www.w3.org/2000/svg"><path d="M36.844 56.084C40.664 40.801 50.217 33.16 65.5 33.16c22.925 0 25.79 17.194 37.253 20.06 7.642 1.91 14.328-.956 20.059-8.597-3.82 15.283-13.372 22.925-28.656 22.925-22.925 0-25.79-17.194-37.253-20.06-7.642-1.91-14.328.956-20.06 8.597ZM8.187 90.472c3.821-15.283 13.373-22.925 28.657-22.925 22.925 0 25.79 17.194 37.253 20.06 7.642 1.91 14.328-.956 20.06-8.598-3.822 15.284-13.374 22.925-28.657 22.925-22.925 0-25.79-17.193-37.253-20.059-7.642-1.91-14.328.955-20.06 8.597Z" fill="#44A8B3"/></svg><svg fill="none" viewBox="0 0 112 112" id="vscode" xmlns="http://www.w3.org/2000/svg"><path d="M101.535 17.605 81.354 7.889a6.097 6.097 0 0 0-6.962 1.183L8.33 69.3a4.081 4.081 0 0 0-.01 6.034l5.393 4.9a4.078 4.078 0 0 0 5.211.231l79.573-60.34A4.053 4.053 0 0 1 105 23.352v-.235a6.117 6.117 0 0 0-3.465-5.512Z" fill="#0065A9"/><path d="m101.535 94.395-20.181 9.72a6.114 6.114 0 0 1-6.962-1.183L8.33 42.7a4.081 4.081 0 0 1-.01-6.034l5.393-4.9a4.077 4.077 0 0 1 5.222-.231l79.562 60.34A4.053 4.053 0 0 0 105 88.648v.252a6.124 6.124 0 0 1-3.465 5.495Z" fill="#007ACC"/><path d="M81.354 104.114a6.107 6.107 0 0 1-6.962-1.183 3.588 3.588 0 0 0 6.108-2.537V11.606a3.584 3.584 0 0 0-6.121-2.534 6.104 6.104 0 0 1 6.961-1.187l20.177 9.702A6.112 6.112 0 0 1 105 23.1v65.8a6.117 6.117 0 0 1-3.469 5.516l-20.177 9.698Z" fill="#1F9CF0"/></svg><svg fill="none" viewBox="0 0 105 100" id="vue" xmlns="http://www.w3.org/2000/svg"><path d="M72.697 69.563c3.872-.401 6.81-3.739 6.675-7.745-.133-4.005-3.47-7.21-7.476-7.21h-.267c-4.14.134-7.343 3.606-7.21 7.745.134 2.002.935 3.738 2.136 4.94-4.539 8.945-11.482 15.488-21.896 20.962-7.076 3.738-14.419 5.074-21.762 4.14-6.008-.802-10.681-3.472-13.619-7.879-4.272-6.542-4.672-13.619-1.067-20.695 2.537-5.073 6.541-8.812 9.078-10.681-.534-1.736-1.335-4.673-1.735-6.81C-3.806 60.35-1.803 79.31 4.072 88.256c4.405 6.676 13.35 10.815 23.23 10.815 2.67 0 5.341-.267 8.011-.934 17.09-3.338 30.041-13.486 37.384-28.573Zm23.498-16.556c-10.147-11.884-25.1-18.426-42.19-18.426H51.87c-1.201-2.403-3.738-4.006-6.542-4.006h-.267c-4.139.134-7.343 3.605-7.21 7.745.134 4.005 3.472 7.21 7.477 7.21h.267c2.937-.134 5.474-2.003 6.542-4.54h2.403c10.147 0 19.76 2.937 28.439 8.678 6.675 4.407 11.482 10.148 14.152 17.09 2.27 5.608 2.136 11.083-.267 15.756-3.738 7.076-10.013 10.948-18.291 10.948-5.34 0-10.414-1.602-13.085-2.804-1.468 1.335-4.139 3.471-6.008 4.807 5.742 2.67 11.616 4.14 17.224 4.14 12.817 0 22.296-7.078 25.901-14.154 3.872-7.744 3.605-21.096-6.409-32.444ZM28.371 71.832c.134 4.006 3.471 7.21 7.476 7.21h.268c4.139-.133 7.343-3.605 7.21-7.744-.134-4.006-3.472-7.21-7.478-7.21h-.266c-.268 0-.668 0-.935.133-5.474-9.079-7.744-18.959-6.942-29.64.533-8.011 3.204-14.954 7.877-20.696 3.871-4.94 11.348-7.343 16.422-7.476 14.152-.268 20.16 17.357 20.56 24.433 1.736.4 4.674 1.336 6.676 2.003C77.637 11.215 64.286 0 51.47 0 39.452 0 28.37 8.679 23.965 21.496c-6.142 17.09-2.136 33.513 5.34 46.464-.667.935-1.068 2.404-.934 3.872Z" fill="#764ABC"/></svg></svg>