<?xml version="1.0" standalone="no"?>
<!DOCTYPE svg PUBLIC "-//W3C//DTD SVG 20010904//EN"
 "http://www.w3.org/TR/2001/REC-SVG-20010904/DTD/svg10.dtd">
<svg version="1.0" xmlns="http://www.w3.org/2000/svg"
 width="647.000000pt" height="193.000000pt" viewBox="0 0 647.000000 193.000000"
 preserveAspectRatio="xMidYMid meet">

<g transform="translate(0.000000,193.000000) scale(0.100000,-0.100000)"
fill="#000000" stroke="none">
<path d="M4774 1855 c-96 -21 -172 -63 -245 -135 -148 -146 -181 -358 -87
-550 117 -240 446 -339 704 -213 70 34 165 120 201 180 88 151 85 376 -8 516
-111 168 -342 251 -565 202z m271 -205 c52 -25 100 -77 129 -139 29 -64 29
-188 0 -252 -65 -140 -211 -207 -359 -165 -75 23 -163 106 -188 180 -21 62
-22 158 -1 219 19 57 83 131 137 158 80 41 196 41 282 -1z"/>
<path d="M50 1383 l0 -468 106 2 107 2 -1 145 0 146 87 0 86 0 95 -145 95
-144 128 -3 c70 -2 127 -2 127 -1 0 1 -49 74 -110 162 -60 88 -110 162 -110
165 0 3 17 14 38 25 78 40 137 131 149 229 12 107 -40 228 -122 283 -81 54
-127 62 -412 67 l-263 4 0 -469z m498 271 c54 -20 82 -62 82 -124 0 -55 -27
-103 -72 -127 -25 -13 -63 -18 -163 -21 l-130 -4 1 144 c1 78 2 145 3 148 3
13 239 -1 279 -16z"/>
<path d="M1000 1537 c0 -347 4 -376 63 -463 42 -64 117 -119 197 -146 92 -32
250 -32 331 0 109 43 184 118 221 220 15 41 17 91 18 375 l0 327 -105 0 -105
0 0 -307 c0 -277 -2 -312 -19 -348 -48 -106 -173 -144 -282 -87 -43 22 -59 38
-81 81 l-28 53 0 304 0 304 -105 0 -105 0 0 -313z"/>
<path d="M2030 1385 l0 -466 268 3 c238 3 273 6 323 24 137 49 235 138 281
254 19 47 22 75 23 185 0 126 -1 132 -32 197 -40 85 -106 156 -181 196 -105
56 -152 64 -429 69 l-253 5 0 -467z m494 271 c70 -21 121 -59 152 -113 23 -39
29 -61 32 -135 6 -111 -9 -165 -59 -222 -62 -70 -119 -90 -276 -94 l-133 -4 0
291 0 291 118 0 c74 0 137 -5 166 -14z"/>
<path d="M3108 1384 c-2 -256 -2 -466 -1 -467 1 -1 49 -1 107 1 l106 3 0 465
0 464 -105 0 -105 0 -2 -466z"/>
<path d="M3520 1385 l0 -465 110 0 110 0 0 138 0 138 50 49 c43 43 52 47 63
35 8 -8 73 -92 146 -187 l131 -172 125 -3 c94 -2 124 0 121 9 -3 7 -91 122
-195 257 -105 135 -191 248 -191 251 0 9 61 76 243 268 l139 147 -129 0 -129
0 -184 -204 c-102 -113 -187 -205 -190 -205 -3 -1 -4 91 -2 204 l3 205 -111 0
-110 0 0 -465z"/>
<path d="M5587 1438 c96 -227 184 -437 195 -465 l21 -53 112 0 113 0 45 108
c25 59 113 268 195 465 l150 357 -107 0 -107 0 -140 -349 c-76 -193 -142 -347
-145 -343 -3 4 -18 39 -33 77 -15 39 -77 193 -138 343 l-110 272 -113 0 -113
0 175 -412z"/>
<path d="M2945 483 c-61 -16 -96 -73 -75 -123 14 -34 31 -46 109 -75 61 -23
82 -46 65 -73 -16 -25 -78 -27 -125 -4 -38 19 -40 19 -49 2 -17 -31 -12 -40
33 -60 104 -48 217 -2 217 88 0 45 -32 74 -113 101 -47 16 -68 28 -73 43 -14
44 58 63 117 32 35 -18 35 -18 44 17 6 24 2 28 -34 43 -41 16 -77 19 -116 9z"/>
<path d="M4972 477 c-147 -56 -159 -258 -20 -326 80 -38 158 -23 215 42 73 83
48 223 -47 272 -42 21 -109 27 -148 12z m134 -78 c55 -52 52 -134 -9 -185 -26
-22 -38 -25 -75 -21 -57 6 -92 40 -99 95 -11 84 45 148 120 138 22 -2 50 -14
63 -27z"/>
<path d="M1176 456 c3 -13 27 -90 53 -172 45 -142 47 -147 74 -148 27 -2 29 2
68 126 23 70 43 128 45 128 2 0 21 -58 44 -129 38 -123 42 -129 65 -127 14 2
27 5 30 7 3 4 105 327 105 336 0 1 -15 3 -32 3 l-33 0 -24 -98 c-43 -175 -41
-175 -86 -29 l-39 127 -31 0 c-32 0 -32 0 -65 -112 -18 -62 -36 -119 -40 -127
-6 -12 -70 193 -70 227 0 7 -14 12 -35 12 -32 0 -35 -2 -29 -24z"/>
<path d="M1802 309 l3 -170 128 -2 127 -2 0 28 0 27 -95 0 -95 0 0 45 0 45 85
0 85 0 0 30 0 30 -85 0 -85 0 0 45 0 45 90 0 c89 0 90 0 90 25 l0 25 -125 0
-125 0 2 -171z"/>
<path d="M2210 313 c0 -94 2 -172 4 -174 2 -2 57 -2 121 1 113 5 118 6 141 33
33 39 31 81 -5 117 -28 28 -28 30 -10 46 29 26 25 85 -7 115 -23 22 -35 24
-135 27 l-109 4 0 -169z m192 100 c42 -37 9 -73 -68 -73 l-54 0 0 45 0 45 52
0 c34 0 58 -6 70 -17z m-2 -136 c31 -16 39 -56 14 -74 -10 -7 -44 -13 -78 -13
l-61 0 2 47 c1 27 2 49 2 51 3 8 100 0 121 -11z"/>
<path d="M3250 450 c0 -30 1 -30 55 -30 l55 0 0 -142 0 -143 30 0 30 0 0 143
0 142 55 0 c54 0 55 0 55 30 l0 30 -140 0 -140 0 0 -30z"/>
<path d="M3672 352 c3 -115 6 -131 27 -161 58 -82 195 -80 255 2 18 25 21 46
25 158 l3 129 -36 0 -36 0 0 -120 c0 -115 -1 -122 -25 -145 -33 -34 -87 -34
-120 0 -24 23 -25 30 -25 145 l0 120 -36 0 -36 0 4 -128z"/>
<path d="M4152 310 l3 -173 99 2 c109 2 139 12 180 61 66 79 50 189 -38 254
-23 18 -45 22 -137 24 l-109 4 2 -172z m181 106 c52 -22 72 -51 72 -107 0 -41
-5 -53 -31 -80 -26 -26 -41 -32 -93 -36 l-61 -6 0 122 0 121 40 0 c22 0 55 -6
73 -14z"/>
<path d="M4632 309 l3 -172 33 -2 32 -3 0 174 0 174 -35 0 -35 0 2 -171z"/>
</g>
</svg>
